PathFileType	4	(X/Y/Z)	TVC_32_BWA_06_walk_RCNL2025.trc
DataRate	CameraRate	NumFrames	NumMarkers	Units	OrigDataRate	OrigDataStartFrame	OrigNumFrames
100	100	8	27	mm	100	194	386
Frame#	Time	R_Shoulder			L_Shoulder			C7			J_Notch			R_Elbow			L_Elbow			R_Wrist			L_Wrist			R_Asis			L_Asis			R_Psis			L_Psis			Sacral			Thoracic			Sternum			R_Thigh_Lateral			R_Knee_Lateral			R_Shank_Lateral			R_Ankle_Lateral			R_Heel			R_Toe			L_Thigh_Lateral			L_Knee_Lateral			L_Shank_Lateral			L_Ankle_Lateral			L_Heel			L_Toe		
		X1	Y1	Z1	X2	Y2	Z2	X3	Y3	Z3	X4	Y4	Z4	X5	Y5	Z5	X6	Y6	Z6	X7	Y7	Z7	X8	Y8	Z8	X9	Y9	Z9	X10	Y10	Z10	X11	Y11	Z11	X12	Y12	Z12	X13	Y13	Z13	X14	Y14	Z14	X15	Y15	Z15	X16	Y16	Z16	X17	Y17	Z17	X18	Y18	Z18	X19	Y19	Z19	X20	Y20	Z20	X21	Y21	Z21	X22	Y22	Z22	X23	Y23	Z23	X24	Y24	Z24	X25	Y25	Z25	X26	Y26	Z26	X27	Y27	Z27
194	1.93000000	-294.496826	1480.830322	456.022949	-311.632782	1442.080933	83.827133	-353.200470	1514.279541	269.436615	-194.309311	1410.854248	277.409485	-344.992828	1136.077148	579.640991	-281.736572	1121.110352	-39.454418	-287.188400	867.457489	553.845886	-130.740051	893.023865	-29.131845	-276.468781	1010.517151	440.408875	-288.433289	1024.040039	152.987076	-468.092560	1025.944702	360.664978	-471.323914	1028.893433	259.942963	-469.708237	1027.419067	310.303970	-439.305573	1260.634033	297.806946	-177.917068	1264.600220	282.591370	-243.165436	648.559814	538.715515	-153.303070	532.338013	504.073303	-281.522552	361.151367	524.652832	-360.647003	170.326004	427.609436	-413.315399	175.769196	355.645905	-252.289444	67.857674	428.471863	-360.857422	677.233643	96.256920	-348.033325	509.818085	161.413406	-375.992981	350.454010	99.557465	-348.128174	74.566750	164.731033	-415.911224	60.228943	213.055283	-206.422531	41.093071	189.730225
195	1.94000000	-287.239746	1481.030640	456.419067	-303.370850	1442.165283	84.134575	-345.135193	1514.150269	269.660553	-186.376099	1410.585693	277.930420	-343.200012	1136.741333	579.191162	-269.497955	1122.104004	-40.182522	-288.993332	867.456696	552.433350	-112.989891	897.827820	-30.654995	-268.361542	1009.851990	439.899750	-282.516205	1023.906250	152.880295	-460.625519	1026.119995	361.892303	-464.652771	1029.161621	261.177368	-462.639145	1027.640808	311.534836	-431.543365	1260.732300	298.481598	-170.231384	1264.245117	282.844482	-232.943481	649.046570	538.144226	-142.470245	533.293640	502.382996	-262.271606	355.870728	524.951599	-331.998688	160.442368	429.312042	-385.226410	162.466766	357.631317	-217.779739	64.720039	430.186218	-356.845367	677.294373	96.532547	-345.340118	509.850922	161.612915	-374.201019	350.794769	99.728889	-348.103333	74.614571	164.886795	-415.901337	60.356289	213.109879	-206.451492	41.099129	189.727432
196	1.95000000	-279.961304	1481.154663	456.906586	-295.098114	1442.247681	84.505196	-337.006104	1513.962524	270.002411	-178.378326	1410.261719	278.538544	-341.348328	1137.440308	578.879761	-257.659393	1123.065186	-40.747349	-290.581116	867.593872	551.064392	-95.621536	902.821960	-31.928886	-260.253754	1009.099243	439.569092	-276.390015	1023.648743	152.940140	-453.102539	1026.260132	363.102173	-457.877075	1029.405884	262.377533	-455.489807	1027.833008	312.739853	-423.719635	1260.771851	299.170837	-162.456360	1263.839478	283.140381	-223.053604	649.222168	537.518066	-132.300964	533.759888	500.419678	-242.903656	350.369812	525.452576	-302.704498	150.646515	431.497192	-356.415924	149.079285	360.229980	-183.001984	62.091099	432.193756	-352.680298	677.305359	96.888527	-342.616211	509.872223	161.871948	-372.379425	351.124420	99.939522	-348.077240	74.656998	165.067932	-415.858826	60.449650	213.204346	-206.465424	41.111839	189.737488
197	1.96000000	-272.640106	1481.202393	457.484619	-286.815765	1442.317261	84.951920	-328.807495	1513.718506	270.459534	-170.313614	1409.876099	279.234558	-339.446472	1138.168335	578.696411	-246.184784	1123.974609	-41.151661	-291.946274	867.857605	549.757507	-78.653767	907.955139	-32.956116	-252.138474	1008.296387	439.445068	-270.058441	1023.277466	153.160919	-445.510681	1026.355835	364.294006	-450.986725	1029.620728	263.547913	-448.248703	1027.988281	313.920959	-415.845612	1260.756836	299.881866	-154.590683	1263.379395	283.484009	-213.522186	649.058350	536.823486	-122.815086	533.714417	498.184357	-223.471741	344.784393	526.150635	-272.821747	141.123764	434.178009	-326.921631	135.809418	363.459961	-148.056885	60.146038	434.447723	-348.358582	677.265442	97.327736	-339.843292	509.874969	162.192444	-370.538055	351.436340	100.189819	-348.048431	74.692688	165.273468	-415.765228	60.497749	213.352539	-206.466278	41.133720	189.757141
198	1.97000000	-265.254761	1481.175293	458.153015	-278.529480	1442.359253	85.495567	-320.540619	1513.420776	271.032471	-162.180878	1409.428833	280.019623	-337.493408	1138.924561	578.630798	-235.036316	1124.816162	-41.395287	-293.085281	868.232056	548.530884	-62.098509	913.172546	-33.739824	-243.998398	1007.471252	439.538208	-263.531616	1022.807983	153.528473	-437.835266	1026.394897	365.473236	-443.970154	1029.796875	264.700775	-440.902710	1028.095886	315.087006	-407.919952	1260.687622	300.634155	-146.633499	1262.863403	283.881073	-204.397278	648.538025	536.052124	-114.040375	533.156250	495.694977	-204.047195	339.259094	527.043030	-242.455505	132.069092	437.347595	-296.812469	122.876190	367.313568	-113.077568	59.049770	436.898621	-343.902618	677.187378	97.838501	-336.999329	509.849884	162.574295	-368.676575	351.727875	100.479218	-348.012848	74.722366	165.496780	-415.616882	60.508430	213.549713	-206.456589	41.164650	189.781525
199	1.98000000	-257.787201	1481.076172	458.913269	-270.237885	1442.360107	86.154938	-312.212799	1513.070435	271.723999	-153.981644	1408.923706	280.894928	-335.476807	1139.714355	578.673157	-224.177444	1125.578003	-41.476364	-293.994965	868.697510	547.404022	-45.963295	918.417908	-34.281218	-235.806137	1006.642883	439.843353	-256.823761	1022.260864	154.023621	-430.057739	1026.361694	366.650482	-436.816895	1029.921875	265.853790	-433.437317	1028.141785	316.252136	-399.930878	1260.559937	301.456757	-138.584656	1262.293213	284.337769	-195.738358	647.656250	535.200989	-106.009155	532.109558	492.983917	-184.726196	333.939972	528.121521	-211.767349	123.686241	440.977966	-266.201080	110.510078	371.753998	-78.239502	58.944366	439.496613	-339.338776	677.089111	98.403328	-334.060577	509.791687	163.013763	-366.780579	352.000305	100.805328	-347.966400	74.748947	165.725647	-415.432526	60.506573	213.773544	-206.440414	41.199730	189.804260
200	1.99000000	-250.226517	1480.908691	459.769653	-261.933228	1442.311279	86.942650	-303.836029	1512.665527	272.536499	-145.721466	1408.367676	281.861694	-333.370331	1140.546387	578.814026	-213.573807	1126.251831	-41.392616	-294.666763	869.232697	546.400452	-30.256967	923.636902	-34.577828	-227.525803	1005.822998	440.341919	-249.949753	1021.659973	154.626053	-422.155273	1026.237549	367.841064	-429.516022	1029.978760	267.029053	-425.835648	1028.108154	317.435059	-391.864563	1260.365479	302.381256	-130.444885	1261.673584	284.861084	-187.608368	646.412048	534.271851	-98.749641	530.620789	490.095215	-165.642517	328.972687	529.365112	-180.973160	116.177101	445.022675	-235.255936	98.946884	376.712830	-43.765625	59.936039	442.194061	-334.674408	676.983643	99.008469	-331.003784	509.702057	163.504089	-364.824249	352.257538	101.164368	-347.907257	74.777328	165.947083	-415.242126	60.519135	213.997467	-206.423004	41.230801	189.818756
201	2.00000000	-242.570175	1480.678223	460.728638	-253.608582	1442.206787	87.865761	-295.425964	1512.201050	273.471832	-137.409958	1407.768066	282.921844	-331.134583	1141.423706	579.042847	-203.192352	1126.832275	-41.142048	-295.081039	869.817352	545.547531	-14.991938	928.780823	-34.622358	-219.119766	1005.015991	441.003632	-242.921936	1021.030334	155.316788	-414.103394	1026.004272	369.064087	-422.051788	1029.946777	268.251587	-418.077591	1027.975525	318.657837	-383.710724	1260.092407	303.436096	-122.216179	1261.011353	285.458557	-180.073212	644.801636	533.270447	-92.271996	528.754028	487.082092	-146.969360	324.498749	530.739197	-150.339966	109.722420	449.415894	-204.218246	88.418442	382.092438	-9.927547	62.079578	444.947815	-329.893555	676.877991	99.646393	-327.805908	509.586578	164.038681	-362.777863	352.504242	101.552834	-347.837494	74.813774	166.154694	-415.070648	60.563610	214.203796	-206.408661	41.249985	189.820526
